<svg xmlns="http://www.w3.org/2000/svg" xmlns:xlink="http://www.w3.org/1999/xlink" width="400" zoomAndPan="magnify" viewBox="0 0 300 269.999989" height="360" preserveAspectRatio="xMidYMid meet" version="1.0"><path fill="#f74f73" d="M 181.449219 44.660156 L 103.417969 46.421875 L 102.742188 15.816406 C 102.742188 9.464844 110.257812 1.328125 110.257812 1.328125 C 112.277344 0.425781 114.394531 -0.0273438 116.605469 -0.0234375 L 169.597656 -0.0234375 C 170.621094 -0.0234375 171.632812 0.078125 172.636719 0.277344 C 173.636719 0.476562 174.613281 0.773438 175.558594 1.164062 C 176.5 1.554688 177.398438 2.035156 178.25 2.605469 C 179.101562 3.175781 179.886719 3.820312 180.609375 4.546875 C 181.332031 5.269531 181.976562 6.058594 182.546875 6.910156 C 183.113281 7.761719 183.59375 8.660156 183.984375 9.605469 C 184.378906 10.550781 184.671875 11.527344 184.871094 12.53125 C 185.070312 13.535156 185.171875 14.550781 185.171875 15.574219 L 185.171875 22.238281 Z M 181.449219 44.660156 " fill-opacity="1" fill-rule="nonzero"/><path fill="#cc3b5e" d="M 185.171875 22.238281 C 176.945312 24.777344 163.570312 27.351562 143.101562 27.351562 C 118.171875 27.351562 111.621094 12.628906 110.261719 1.347656 C 109.578125 1.652344 108.921875 2.003906 108.289062 2.402344 C 107.65625 2.804688 107.054688 3.246094 106.488281 3.734375 C 105.917969 4.21875 105.386719 4.746094 104.894531 5.308594 C 104.402344 5.871094 103.949219 6.464844 103.542969 7.09375 C 103.136719 7.722656 102.773438 8.378906 102.460938 9.058594 C 102.148438 9.738281 101.886719 10.4375 101.671875 11.15625 C 101.460938 11.875 101.300781 12.601562 101.195312 13.34375 C 101.085938 14.085938 101.03125 14.832031 101.03125 15.582031 L 101.03125 50.570312 L 185.171875 50.570312 Z M 185.171875 22.238281 " fill-opacity="1" fill-rule="nonzero"/><path fill="#87a574" d="M 77.425781 56.980469 C 76.855469 56.609375 76.277344 56.257812 75.683594 55.917969 C 75.09375 55.582031 74.492188 55.265625 73.882812 54.964844 C 73.273438 54.664062 72.65625 54.378906 72.027344 54.113281 C 71.402344 53.847656 70.769531 53.601562 70.128906 53.371094 C 69.488281 53.144531 68.84375 52.933594 68.191406 52.742188 C 67.539062 52.554688 66.878906 52.382812 66.21875 52.226562 C 65.554688 52.074219 64.886719 51.941406 64.21875 51.828125 C 63.546875 51.714844 62.875 51.621094 62.199219 51.546875 C 61.523438 51.472656 60.84375 51.414062 60.167969 51.378906 C 59.488281 51.34375 58.808594 51.328125 58.128906 51.332031 C 57.449219 51.339844 56.769531 51.363281 56.089844 51.40625 C 55.414062 51.449219 54.734375 51.511719 54.0625 51.59375 C 53.386719 51.679688 52.714844 51.78125 52.046875 51.902344 C 51.375 52.027344 50.710938 52.167969 50.050781 52.328125 C 49.390625 52.488281 48.734375 52.667969 48.085938 52.867188 C 47.433594 53.066406 46.789062 53.285156 46.152344 53.519531 C 45.515625 53.757812 44.886719 54.011719 44.261719 54.285156 C 43.640625 54.558594 43.023438 54.847656 42.417969 55.15625 C 41.8125 55.464844 41.214844 55.792969 40.628906 56.132812 C 40.042969 56.476562 39.464844 56.839844 38.898438 57.214844 C 38.332031 57.59375 37.777344 57.984375 37.234375 58.394531 C 36.691406 58.804688 36.160156 59.226562 35.640625 59.667969 C 35.125 60.109375 34.617188 60.5625 34.125 61.03125 C 33.632812 61.503906 33.15625 61.984375 32.691406 62.484375 C 32.226562 62.980469 31.777344 63.492188 31.34375 64.015625 C 30.90625 64.539062 30.488281 65.074219 30.085938 65.621094 C 29.679688 66.167969 29.292969 66.730469 28.921875 67.300781 C 28.550781 67.871094 28.195312 68.449219 27.859375 69.042969 C 27.523438 69.632812 27.203125 70.234375 26.898438 70.84375 C 26.597656 71.453125 26.3125 72.070312 26.042969 72.695312 C 25.777344 73.320312 25.53125 73.957031 25.300781 74.597656 C 25.070312 75.238281 24.859375 75.882812 24.664062 76.535156 C 24.472656 77.1875 24.300781 77.847656 24.144531 78.511719 C 23.992188 79.171875 23.855469 79.839844 23.738281 80.511719 C 23.625 81.183594 23.527344 81.855469 23.449219 82.53125 C 23.375 83.207031 23.316406 83.886719 23.28125 84.566406 C 23.242188 85.246094 23.226562 85.925781 23.226562 86.609375 C 23.230469 87.289062 23.25 87.96875 23.292969 88.648438 C 23.332031 89.328125 23.394531 90.003906 23.476562 90.679688 C 23.558594 91.359375 23.65625 92.03125 23.777344 92.699219 C 23.898438 93.371094 24.035156 94.035156 24.195312 94.699219 C 24.351562 95.359375 24.53125 96.019531 24.726562 96.667969 C 24.925781 97.320312 25.140625 97.96875 25.375 98.605469 C 25.609375 99.246094 25.859375 99.878906 26.132812 100.5 C 26.402344 101.125 26.691406 101.742188 26.996094 102.351562 C 27.304688 102.957031 27.628906 103.554688 27.96875 104.144531 C 28.308594 104.734375 28.667969 105.3125 29.042969 105.878906 C 29.417969 106.449219 29.808594 107.003906 30.214844 107.550781 C 30.621094 108.097656 31.042969 108.628906 31.480469 109.148438 C 31.921875 109.671875 32.371094 110.179688 32.839844 110.671875 C 33.308594 111.167969 33.789062 111.648438 34.285156 112.113281 C 34.78125 112.582031 35.289062 113.03125 35.808594 113.46875 C 36.332031 113.90625 36.863281 114.328125 37.410156 114.734375 C 37.957031 115.140625 38.511719 115.527344 39.082031 115.902344 C 39.648438 116.277344 40.230469 116.632812 40.816406 116.972656 C 41.40625 117.3125 42.007812 117.632812 42.613281 117.9375 C 43.222656 118.242188 43.839844 118.53125 44.460938 118.800781 C 45.085938 119.070312 45.71875 119.320312 46.359375 119.550781 C 46.996094 119.785156 47.640625 120 48.292969 120.191406 C 48.945312 120.386719 49.601562 120.5625 50.261719 120.71875 C 50.925781 120.875 51.589844 121.015625 52.261719 121.132812 C 52.929688 121.25 53.601562 121.347656 54.277344 121.425781 C 54.953125 121.507812 55.628906 121.566406 56.308594 121.605469 C 56.988281 121.644531 57.667969 121.664062 58.347656 121.664062 L 99.421875 121.664062 L 99.421875 69.398438 Z M 77.425781 56.980469 " fill-opacity="1" fill-rule="nonzero"/><path fill="#7aaeed" d="M 88.539062 49.574219 C 88.6875 48.835938 88.910156 48.121094 89.203125 47.425781 C 89.496094 46.730469 89.859375 46.070312 90.285156 45.449219 C 90.710938 44.828125 91.195312 44.257812 91.738281 43.734375 C 92.28125 43.210938 92.871094 42.746094 93.507812 42.34375 C 94.144531 41.9375 94.8125 41.601562 95.515625 41.335938 C 96.222656 41.066406 96.945312 40.871094 97.6875 40.75 C 98.433594 40.628906 99.179688 40.582031 99.933594 40.613281 C 100.6875 40.644531 101.429688 40.75 102.160156 40.929688 C 119.96875 45.105469 138.019531 47.179688 156.3125 47.144531 C 174.589844 47.203125 192.453125 44.519531 209.90625 39.085938 C 210.515625 38.886719 211.136719 38.753906 211.773438 38.691406 C 212.410156 38.632812 213.046875 38.644531 213.683594 38.722656 C 214.316406 38.804688 214.933594 38.957031 215.535156 39.175781 C 216.136719 39.398438 216.707031 39.679688 217.242188 40.027344 C 217.78125 40.378906 218.273438 40.78125 218.71875 41.238281 C 219.167969 41.695312 219.558594 42.199219 219.894531 42.742188 C 220.230469 43.289062 220.5 43.867188 220.707031 44.472656 C 220.910156 45.078125 221.046875 45.699219 221.117188 46.339844 C 221.765625 53.265625 222.519531 62.539062 222.859375 71.367188 C 222.859375 71.367188 218.371094 101.675781 191.566406 99.539062 L 97.371094 99.90625 L 89.902344 89.683594 C 89.378906 85.109375 86.511719 72.972656 86.511719 72.972656 C 86.488281 65.113281 87.164062 57.3125 88.539062 49.574219 Z M 88.539062 49.574219 " fill-opacity="1" fill-rule="nonzero"/><path fill="#526d3a" d="M 51.332031 103.15625 C 50.585938 103.15625 49.84375 103.082031 49.109375 102.933594 C 39.191406 100.957031 33.617188 93.132812 35.234375 83.46875 C 35.351562 82.761719 35.503906 82.0625 35.691406 81.371094 C 35.878906 80.679688 36.097656 79.996094 36.351562 79.328125 C 36.605469 78.65625 36.890625 78 37.210938 77.355469 C 37.527344 76.714844 37.875 76.089844 38.253906 75.480469 C 38.636719 74.875 39.042969 74.285156 39.480469 73.71875 C 39.917969 73.148438 40.382812 72.605469 40.871094 72.082031 C 41.363281 71.558594 41.878906 71.0625 42.417969 70.589844 C 42.957031 70.121094 43.515625 69.675781 44.101562 69.257812 C 44.683594 68.84375 45.285156 68.457031 45.90625 68.097656 C 46.527344 67.742188 47.164062 67.414062 47.816406 67.121094 C 48.46875 66.828125 49.136719 66.566406 49.8125 66.335938 C 50.492188 66.105469 51.179688 65.910156 51.878906 65.75 C 52.578125 65.589844 53.28125 65.460938 53.992188 65.371094 C 54.699219 65.277344 55.414062 65.222656 56.128906 65.199219 C 56.84375 65.175781 57.558594 65.191406 58.273438 65.238281 C 58.988281 65.289062 59.699219 65.371094 60.40625 65.488281 C 67.457031 66.671875 73.152344 70.273438 76.441406 75.632812 C 80.074219 81.554688 80.621094 89.082031 78.023438 97.398438 C 77.894531 97.820312 77.6875 98.199219 77.40625 98.535156 C 77.125 98.875 76.792969 99.144531 76.402344 99.347656 C 76.011719 99.550781 75.601562 99.675781 75.164062 99.714844 C 74.726562 99.753906 74.296875 99.707031 73.878906 99.578125 C 73.460938 99.445312 73.082031 99.238281 72.746094 98.957031 C 72.410156 98.675781 72.136719 98.339844 71.933594 97.949219 C 71.730469 97.5625 71.609375 97.148438 71.570312 96.710938 C 71.53125 96.273438 71.578125 95.84375 71.710938 95.421875 C 73.71875 88.988281 73.40625 83.339844 70.804688 79.101562 C 68.5 75.34375 64.523438 72.894531 59.3125 72.023438 C 58.324219 71.855469 57.332031 71.789062 56.332031 71.820312 C 55.332031 71.851562 54.34375 71.976562 53.367188 72.203125 C 52.390625 72.429688 51.445312 72.75 50.535156 73.160156 C 49.621094 73.570312 48.757812 74.070312 47.941406 74.652344 C 47.128906 75.234375 46.375 75.890625 45.691406 76.621094 C 45.003906 77.351562 44.394531 78.140625 43.867188 78.988281 C 43.335938 79.839844 42.894531 80.734375 42.539062 81.671875 C 42.183594 82.609375 41.921875 83.574219 41.757812 84.5625 C 40.730469 90.710938 43.960938 95.148438 50.402344 96.433594 C 53.34375 97.027344 56.320312 94.503906 57.386719 91.835938 C 57.515625 91.578125 57.617188 91.3125 57.695312 91.035156 C 57.773438 90.753906 57.824219 90.472656 57.847656 90.183594 C 57.871094 89.898438 57.863281 89.609375 57.832031 89.324219 C 57.800781 89.039062 57.742188 88.757812 57.652344 88.480469 C 57.566406 88.207031 57.453125 87.941406 57.316406 87.6875 C 57.179688 87.433594 57.019531 87.199219 56.835938 86.976562 C 56.648438 86.753906 56.445312 86.550781 56.222656 86.367188 C 56 86.183594 55.761719 86.027344 55.507812 85.890625 C 55.140625 85.652344 54.828125 85.355469 54.574219 85 C 54.324219 84.640625 54.148438 84.246094 54.050781 83.816406 C 53.957031 83.390625 53.945312 82.957031 54.019531 82.527344 C 54.09375 82.09375 54.25 81.691406 54.484375 81.320312 C 54.71875 80.949219 55.015625 80.636719 55.371094 80.382812 C 55.730469 80.128906 56.125 79.957031 56.550781 79.859375 C 56.980469 79.761719 57.410156 79.75 57.839844 79.828125 C 58.273438 79.902344 58.675781 80.054688 59.046875 80.289062 C 59.621094 80.632812 60.164062 81.027344 60.667969 81.46875 C 61.175781 81.910156 61.636719 82.394531 62.054688 82.917969 C 62.472656 83.445312 62.839844 84.003906 63.15625 84.59375 C 63.472656 85.1875 63.730469 85.804688 63.9375 86.441406 C 64.140625 87.082031 64.285156 87.734375 64.375 88.402344 C 64.460938 89.066406 64.484375 89.738281 64.449219 90.40625 C 64.414062 91.078125 64.320312 91.738281 64.167969 92.394531 C 64.011719 93.046875 63.800781 93.679688 63.527344 94.296875 C 61.699219 98.882812 56.972656 103.15625 51.332031 103.15625 Z M 51.332031 103.15625 " fill-opacity="1" fill-rule="nonzero"/><path fill="#497fce" d="M 222.488281 91.460938 C 223.144531 86.304688 223.148438 79.003906 222.859375 71.367188 C 203.585938 82.78125 178.753906 82.785156 178.753906 82.785156 L 107.269531 82.785156 C 95.824219 82.785156 89.675781 77.484375 86.511719 72.976562 C 86.472656 79.09375 86.777344 85.191406 87.4375 91.269531 C 88.785156 103.0625 96.699219 102.152344 96.699219 102.152344 L 192.386719 102.152344 C 219.1875 104.289062 222.488281 91.460938 222.488281 91.460938 Z M 222.488281 91.460938 " fill-opacity="1" fill-rule="nonzero"/><path fill="#4a4a60" d="M 136.644531 38.015625 C 137.144531 38.015625 137.640625 38.066406 138.128906 38.164062 C 138.617188 38.261719 139.09375 38.40625 139.550781 38.59375 C 140.011719 38.785156 140.449219 39.019531 140.867188 39.296875 C 141.28125 39.574219 141.664062 39.890625 142.015625 40.246094 C 142.367188 40.597656 142.683594 40.980469 142.960938 41.398438 C 143.238281 41.8125 143.472656 42.25 143.664062 42.710938 C 143.855469 43.171875 143.996094 43.648438 144.09375 44.136719 C 144.191406 44.628906 144.242188 45.121094 144.242188 45.621094 L 144.242188 103.066406 L 129.050781 103.066406 L 129.050781 45.621094 C 129.050781 45.121094 129.101562 44.628906 129.199219 44.136719 C 129.296875 43.648438 129.4375 43.171875 129.628906 42.710938 C 129.820312 42.25 130.054688 41.8125 130.332031 41.398438 C 130.609375 40.980469 130.921875 40.597656 131.277344 40.246094 C 131.628906 39.890625 132.011719 39.574219 132.425781 39.296875 C 132.839844 39.019531 133.28125 38.785156 133.738281 38.59375 C 134.199219 38.40625 134.675781 38.261719 135.164062 38.164062 C 135.652344 38.066406 136.148438 38.015625 136.644531 38.015625 Z M 136.644531 38.015625 " fill-opacity="1" fill-rule="nonzero"/><path fill="#4a4a60" d="M 177.574219 38.015625 C 178.074219 38.015625 178.566406 38.066406 179.058594 38.164062 C 179.546875 38.261719 180.019531 38.40625 180.480469 38.59375 C 180.941406 38.785156 181.378906 39.019531 181.796875 39.296875 C 182.210938 39.574219 182.59375 39.890625 182.945312 40.246094 C 183.296875 40.597656 183.613281 40.980469 183.890625 41.398438 C 184.167969 41.8125 184.402344 42.25 184.59375 42.710938 C 184.78125 43.171875 184.925781 43.648438 185.023438 44.136719 C 185.121094 44.628906 185.171875 45.121094 185.171875 45.621094 L 185.171875 103.066406 L 169.980469 103.066406 L 169.980469 45.621094 C 169.980469 45.121094 170.03125 44.628906 170.128906 44.136719 C 170.222656 43.648438 170.367188 43.171875 170.558594 42.710938 C 170.75 42.25 170.984375 41.8125 171.261719 41.398438 C 171.539062 40.980469 171.851562 40.597656 172.207031 40.246094 C 172.558594 39.890625 172.941406 39.574219 173.355469 39.296875 C 173.769531 39.019531 174.207031 38.785156 174.667969 38.59375 C 175.128906 38.40625 175.605469 38.261719 176.09375 38.164062 C 176.582031 38.066406 177.078125 38.015625 177.574219 38.015625 Z M 177.574219 38.015625 " fill-opacity="1" fill-rule="nonzero"/><path fill="#4a4a60" d="M 29.257812 129.171875 L 39.4375 131.203125 C 40.324219 131.378906 41.183594 131.640625 42.019531 131.988281 C 42.855469 132.335938 43.648438 132.761719 44.398438 133.261719 C 45.152344 133.765625 45.847656 134.339844 46.484375 134.980469 C 47.125 135.617188 47.695312 136.316406 48.195312 137.066406 C 48.699219 137.820312 49.121094 138.617188 49.46875 139.453125 C 49.8125 140.289062 50.074219 141.152344 50.25 142.039062 C 50.425781 142.925781 50.511719 143.824219 50.511719 144.726562 C 50.511719 145.632812 50.425781 146.527344 50.246094 147.417969 L 39.910156 199.339844 C 39.734375 200.226562 39.472656 201.089844 39.128906 201.925781 C 38.78125 202.761719 38.355469 203.554688 37.855469 204.308594 C 37.351562 205.0625 36.78125 205.757812 36.140625 206.398438 C 35.503906 207.035156 34.804688 207.609375 34.054688 208.109375 C 33.304688 208.613281 32.507812 209.039062 31.675781 209.382812 C 30.839844 209.730469 29.976562 209.992188 29.089844 210.167969 C 28.207031 210.34375 27.308594 210.429688 26.40625 210.429688 C 25.503906 210.429688 24.605469 210.339844 23.71875 210.164062 L 13.539062 208.132812 C 12.652344 207.957031 11.792969 207.695312 10.957031 207.347656 C 10.121094 207 9.328125 206.574219 8.578125 206.070312 C 7.828125 205.570312 7.132812 204.996094 6.492188 204.355469 C 5.855469 203.714844 5.285156 203.019531 4.78125 202.265625 C 4.28125 201.515625 3.855469 200.71875 3.511719 199.882812 C 3.164062 199.046875 2.902344 198.183594 2.726562 197.296875 C 2.550781 196.410156 2.464844 195.511719 2.464844 194.609375 C 2.464844 193.703125 2.554688 192.804688 2.730469 191.917969 L 13.066406 139.996094 C 13.242188 139.109375 13.503906 138.246094 13.851562 137.410156 C 14.195312 136.574219 14.621094 135.777344 15.125 135.027344 C 15.625 134.273438 16.195312 133.578125 16.835938 132.9375 C 17.476562 132.300781 18.171875 131.726562 18.921875 131.226562 C 19.675781 130.722656 20.46875 130.296875 21.304688 129.953125 C 22.136719 129.605469 23 129.34375 23.886719 129.167969 C 24.773438 128.992188 25.667969 128.90625 26.570312 128.90625 C 27.476562 128.90625 28.371094 128.992188 29.257812 129.171875 Z M 29.257812 129.171875 " fill-opacity="1" fill-rule="nonzero"/><path fill="#ffb655" d="M 297.167969 204.375 L 297.167969 184.851562 L 273.9375 154.484375 L 248.363281 153.785156 C 246.785156 153.730469 245.246094 153.472656 243.738281 153.015625 C 242.230469 152.554688 240.804688 151.910156 239.464844 151.078125 C 238.125 150.246094 236.914062 149.257812 235.832031 148.109375 C 234.75 146.960938 233.835938 145.695312 233.082031 144.304688 C 227.628906 134.066406 221.433594 124.300781 214.496094 115.007812 C 212.855469 112.863281 210.992188 110.933594 208.910156 109.214844 C 206.828125 107.5 204.578125 106.042969 202.160156 104.84375 C 199.742188 103.644531 197.21875 102.738281 194.59375 102.121094 C 191.96875 101.503906 189.304688 101.195312 186.609375 101.191406 L 101.773438 101.191406 C 99.355469 101.1875 96.957031 101.425781 94.585938 101.898438 C 92.214844 102.371094 89.910156 103.074219 87.679688 104.007812 C 85.445312 104.941406 83.328125 106.082031 81.320312 107.4375 C 79.3125 108.789062 77.460938 110.328125 75.761719 112.050781 C 64.203125 123.730469 54.660156 136.875 47.128906 151.488281 L 34.511719 190.125 C 33.363281 197.605469 32.929688 205.125 33.21875 212.683594 L 47.886719 221.484375 L 288.402344 221.484375 Z M 297.167969 204.375 " fill-opacity="1" fill-rule="nonzero"/><path fill="#ffeedc" d="M 273.9375 154.484375 L 273.9375 169.335938 C 273.9375 170.296875 274.03125 171.25 274.210938 172.195312 C 274.394531 173.140625 274.664062 174.0625 275.019531 174.953125 C 275.378906 175.847656 275.816406 176.699219 276.335938 177.511719 C 276.855469 178.320312 277.449219 179.074219 278.109375 179.769531 C 278.773438 180.464844 279.496094 181.09375 280.28125 181.652344 C 281.0625 182.207031 281.894531 182.6875 282.769531 183.085938 C 283.640625 183.488281 284.546875 183.800781 285.480469 184.027344 C 286.414062 184.253906 287.363281 184.386719 288.324219 184.433594 L 297.167969 184.851562 C 297.167969 184.851562 299.949219 154.484375 273.9375 154.484375 Z M 273.9375 154.484375 " fill-opacity="1" fill-rule="nonzero"/><path fill="#f74f73" d="M 47.128906 151.488281 C 48.574219 152.050781 49.949219 152.75 51.253906 153.585938 C 52.449219 154.34375 53.519531 155.253906 54.460938 156.308594 C 55.40625 157.367188 56.1875 158.53125 56.808594 159.804688 C 57.425781 161.078125 57.859375 162.414062 58.109375 163.808594 C 58.359375 165.203125 58.414062 166.609375 58.273438 168.019531 L 57.546875 175.503906 C 57.484375 176.113281 57.394531 176.71875 57.269531 177.320312 C 57.148438 177.921875 56.992188 178.511719 56.804688 179.097656 C 56.617188 179.679688 56.402344 180.253906 56.152344 180.8125 C 55.90625 181.375 55.628906 181.921875 55.324219 182.453125 C 55.019531 182.984375 54.683594 183.496094 54.324219 183.992188 C 53.964844 184.488281 53.578125 184.960938 53.167969 185.417969 C 52.757812 185.871094 52.324219 186.304688 51.867188 186.710938 C 51.410156 187.121094 50.933594 187.503906 50.433594 187.859375 C 49.9375 188.21875 49.421875 188.546875 48.890625 188.847656 C 48.359375 189.152344 47.8125 189.425781 47.25 189.667969 C 46.6875 189.914062 46.113281 190.128906 45.53125 190.308594 C 44.945312 190.492188 44.355469 190.644531 43.753906 190.765625 C 43.152344 190.882812 42.546875 190.972656 41.9375 191.027344 C 41.328125 191.082031 40.71875 191.105469 40.105469 191.09375 C 39.492188 191.085938 38.882812 191.042969 38.277344 190.96875 C 37.667969 190.894531 37.066406 190.785156 36.46875 190.648438 C 35.828125 190.496094 35.171875 190.324219 34.511719 190.128906 C 34.511719 190.128906 38.519531 166.257812 47.128906 151.488281 Z M 47.128906 151.488281 " fill-opacity="1" fill-rule="nonzero"/><path fill="#4a4a60" d="M 96.367188 119.082031 C 94.800781 119.949219 93.355469 120.992188 92.039062 122.203125 C 84.964844 128.890625 79.390625 136.65625 75.320312 145.503906 C 75.183594 145.800781 75.0625 146.105469 74.960938 146.417969 C 74.859375 146.730469 74.777344 147.046875 74.714844 147.367188 C 74.652344 147.691406 74.613281 148.015625 74.589844 148.34375 C 74.570312 148.671875 74.570312 148.996094 74.589844 149.324219 C 74.609375 149.652344 74.652344 149.976562 74.710938 150.300781 C 74.773438 150.621094 74.855469 150.941406 74.957031 151.25 C 75.054688 151.5625 75.175781 151.867188 75.316406 152.164062 C 75.453125 152.460938 75.613281 152.75 75.789062 153.027344 C 75.964844 153.304688 76.15625 153.570312 76.363281 153.820312 C 76.574219 154.074219 76.796875 154.3125 77.035156 154.539062 C 77.273438 154.761719 77.523438 154.972656 77.789062 155.164062 C 78.054688 155.359375 78.332031 155.535156 78.617188 155.691406 C 78.90625 155.851562 79.199219 155.988281 79.503906 156.109375 C 79.808594 156.230469 80.121094 156.332031 80.4375 156.414062 C 80.753906 156.496094 81.078125 156.558594 81.402344 156.601562 C 81.726562 156.640625 82.054688 156.664062 82.382812 156.664062 L 89.59375 156.664062 C 90.039062 156.664062 90.480469 156.617188 90.914062 156.53125 C 91.351562 156.445312 91.773438 156.316406 92.183594 156.144531 C 92.59375 155.976562 92.984375 155.765625 93.355469 155.519531 C 93.726562 155.273438 94.066406 154.992188 94.382812 154.675781 C 94.695312 154.363281 94.976562 154.019531 95.222656 153.648438 C 95.46875 153.277344 95.679688 152.886719 95.847656 152.476562 C 96.019531 152.066406 96.148438 151.640625 96.234375 151.207031 C 96.320312 150.769531 96.363281 150.328125 96.363281 149.882812 Z M 96.367188 119.082031 " fill-opacity="1" fill-rule="nonzero"/><path fill="#4a4a60" d="M 116.707031 116.152344 L 142.101562 116.152344 C 142.503906 116.152344 142.902344 116.191406 143.296875 116.269531 C 143.691406 116.347656 144.074219 116.464844 144.445312 116.621094 C 144.816406 116.773438 145.171875 116.964844 145.503906 117.1875 C 145.839844 117.410156 146.148438 117.664062 146.433594 117.949219 C 146.71875 118.234375 146.972656 118.546875 147.195312 118.882812 C 147.421875 119.214844 147.609375 119.570312 147.761719 119.941406 C 147.917969 120.316406 148.035156 120.699219 148.113281 121.09375 C 148.191406 121.488281 148.230469 121.886719 148.230469 122.292969 L 148.230469 150.523438 C 148.230469 150.925781 148.191406 151.328125 148.113281 151.722656 C 148.035156 152.117188 147.917969 152.5 147.761719 152.875 C 147.609375 153.246094 147.421875 153.597656 147.195312 153.933594 C 146.972656 154.269531 146.71875 154.578125 146.433594 154.863281 C 146.148438 155.148438 145.839844 155.402344 145.503906 155.628906 C 145.171875 155.851562 144.816406 156.039062 144.445312 156.195312 C 144.074219 156.347656 143.691406 156.464844 143.296875 156.542969 C 142.902344 156.625 142.503906 156.664062 142.101562 156.664062 L 116.707031 156.664062 C 116.304688 156.664062 115.90625 156.625 115.511719 156.542969 C 115.113281 156.464844 114.730469 156.347656 114.359375 156.195312 C 113.988281 156.039062 113.636719 155.851562 113.300781 155.628906 C 112.964844 155.402344 112.65625 155.148438 112.371094 154.863281 C 112.085938 154.578125 111.832031 154.269531 111.609375 153.933594 C 111.386719 153.597656 111.195312 153.246094 111.042969 152.875 C 110.886719 152.5 110.773438 152.117188 110.695312 151.722656 C 110.613281 151.328125 110.574219 150.925781 110.574219 150.523438 L 110.574219 122.292969 C 110.574219 121.886719 110.613281 121.488281 110.695312 121.09375 C 110.773438 120.699219 110.886719 120.316406 111.042969 119.941406 C 111.195312 119.570312 111.386719 119.214844 111.609375 118.882812 C 111.832031 118.546875 112.085938 118.234375 112.371094 117.949219 C 112.65625 117.664062 112.964844 117.410156 113.300781 117.1875 C 113.636719 116.964844 113.988281 116.773438 114.359375 116.621094 C 114.730469 116.464844 115.113281 116.347656 115.511719 116.269531 C 115.90625 116.191406 116.304688 116.152344 116.707031 116.152344 Z M 116.707031 116.152344 " fill-opacity="1" fill-rule="nonzero"/><path fill="#4a4a60" d="M 211.160156 146.03125 C 208.039062 137.820312 203.976562 130.105469 198.96875 122.890625 C 198.21875 121.84375 197.355469 120.902344 196.378906 120.066406 C 195.402344 119.226562 194.339844 118.515625 193.195312 117.929688 C 192.050781 117.34375 190.851562 116.898438 189.601562 116.601562 C 188.351562 116.300781 187.082031 116.152344 185.796875 116.152344 L 169.171875 116.152344 C 168.730469 116.152344 168.292969 116.195312 167.859375 116.28125 C 167.425781 116.367188 167.003906 116.496094 166.597656 116.667969 C 166.1875 116.835938 165.800781 117.042969 165.433594 117.289062 C 165.0625 117.535156 164.722656 117.816406 164.410156 118.128906 C 164.097656 118.441406 163.820312 118.78125 163.574219 119.148438 C 163.328125 119.519531 163.121094 119.90625 162.949219 120.316406 C 162.78125 120.726562 162.652344 121.148438 162.566406 121.582031 C 162.480469 122.015625 162.4375 122.453125 162.4375 122.898438 L 162.4375 149.917969 C 162.4375 150.359375 162.480469 150.800781 162.566406 151.234375 C 162.652344 151.667969 162.78125 152.089844 162.949219 152.5 C 163.121094 152.90625 163.328125 153.296875 163.574219 153.664062 C 163.820312 154.03125 164.097656 154.375 164.410156 154.6875 C 164.722656 155 165.0625 155.28125 165.429688 155.527344 C 165.800781 155.773438 166.1875 155.980469 166.597656 156.148438 C 167.003906 156.320312 167.425781 156.445312 167.859375 156.53125 C 168.292969 156.621094 168.730469 156.664062 169.171875 156.664062 L 203.878906 156.664062 C 204.195312 156.664062 204.507812 156.644531 204.824219 156.605469 C 205.136719 156.570312 205.445312 156.511719 205.753906 156.4375 C 206.058594 156.359375 206.363281 156.265625 206.65625 156.15625 C 206.953125 156.042969 207.238281 155.914062 207.519531 155.765625 C 207.800781 155.617188 208.070312 155.453125 208.328125 155.273438 C 208.589844 155.09375 208.835938 154.898438 209.074219 154.691406 C 209.308594 154.480469 209.53125 154.253906 209.738281 154.019531 C 209.949219 153.78125 210.144531 153.53125 210.320312 153.269531 C 210.5 153.011719 210.664062 152.738281 210.808594 152.457031 C 210.953125 152.179688 211.082031 151.890625 211.191406 151.59375 C 211.304688 151.296875 211.394531 150.996094 211.46875 150.6875 C 211.542969 150.378906 211.601562 150.070312 211.636719 149.753906 C 211.671875 149.441406 211.691406 149.125 211.6875 148.808594 C 211.6875 148.492188 211.664062 148.179688 211.625 147.863281 C 211.585938 147.550781 211.527344 147.238281 211.449219 146.933594 C 211.371094 146.625 211.277344 146.324219 211.160156 146.03125 Z M 211.160156 146.03125 " fill-opacity="1" fill-rule="nonzero"/><path fill="#e87b31" d="M 120.179688 175.804688 L 110.574219 175.804688 C 110.136719 175.804688 109.714844 175.71875 109.308594 175.550781 C 108.90625 175.382812 108.546875 175.144531 108.238281 174.832031 C 107.925781 174.523438 107.6875 174.164062 107.519531 173.757812 C 107.351562 173.351562 107.269531 172.929688 107.269531 172.492188 C 107.269531 172.050781 107.351562 171.628906 107.519531 171.222656 C 107.6875 170.816406 107.925781 170.457031 108.238281 170.148438 C 108.546875 169.835938 108.90625 169.597656 109.308594 169.429688 C 109.714844 169.261719 110.136719 169.179688 110.574219 169.179688 L 120.179688 169.179688 C 120.617188 169.179688 121.039062 169.261719 121.445312 169.429688 C 121.847656 169.597656 122.207031 169.835938 122.515625 170.148438 C 122.828125 170.457031 123.066406 170.816406 123.234375 171.222656 C 123.402344 171.628906 123.484375 172.050781 123.484375 172.492188 C 123.484375 172.929688 123.402344 173.351562 123.234375 173.757812 C 123.066406 174.164062 122.828125 174.523438 122.515625 174.832031 C 122.207031 175.144531 121.847656 175.382812 121.445312 175.550781 C 121.039062 175.71875 120.617188 175.804688 120.179688 175.804688 Z M 120.179688 175.804688 " fill-opacity="1" fill-rule="nonzero"/><path fill="#e87b31" d="M 172.042969 175.804688 L 162.441406 175.804688 C 162.003906 175.804688 161.582031 175.71875 161.175781 175.550781 C 160.769531 175.382812 160.410156 175.144531 160.101562 174.832031 C 159.792969 174.523438 159.550781 174.164062 159.386719 173.757812 C 159.21875 173.351562 159.132812 172.929688 159.132812 172.492188 C 159.132812 172.050781 159.21875 171.628906 159.386719 171.222656 C 159.550781 170.816406 159.792969 170.457031 160.101562 170.148438 C 160.410156 169.835938 160.769531 169.597656 161.175781 169.429688 C 161.582031 169.261719 162.003906 169.179688 162.441406 169.179688 L 172.042969 169.179688 C 172.480469 169.179688 172.902344 169.261719 173.308594 169.429688 C 173.714844 169.597656 174.070312 169.835938 174.382812 170.148438 C 174.691406 170.457031 174.929688 170.816406 175.097656 171.222656 C 175.265625 171.628906 175.351562 172.050781 175.351562 172.492188 C 175.351562 172.929688 175.265625 173.351562 175.097656 173.757812 C 174.929688 174.164062 174.691406 174.523438 174.382812 174.832031 C 174.070312 175.144531 173.714844 175.382812 173.308594 175.550781 C 172.902344 175.71875 172.480469 175.804688 172.042969 175.804688 Z M 172.042969 175.804688 " fill-opacity="1" fill-rule="nonzero"/><path fill="#e87b31" d="M 281.355469 230.433594 C 282.394531 230.433594 283.421875 230.332031 284.441406 230.128906 C 285.460938 229.925781 286.449219 229.625 287.40625 229.226562 C 288.367188 228.828125 289.277344 228.34375 290.140625 227.765625 C 291.003906 227.1875 291.804688 226.53125 292.535156 225.792969 C 293.269531 225.058594 293.925781 224.261719 294.503906 223.394531 C 295.082031 222.53125 295.566406 221.617188 295.964844 220.65625 C 296.363281 219.699219 296.660156 218.707031 296.863281 217.6875 C 297.066406 216.667969 297.167969 215.636719 297.167969 214.597656 L 297.167969 204.378906 C 289.480469 211.941406 279.15625 212.691406 279.15625 212.691406 L 33.222656 212.691406 C 33.257812 213.605469 33.296875 214.523438 33.351562 215.449219 C 33.410156 216.453125 33.558594 217.441406 33.804688 218.414062 C 34.046875 219.386719 34.378906 220.328125 34.800781 221.238281 C 35.222656 222.148438 35.726562 223.011719 36.3125 223.824219 C 36.894531 224.640625 37.550781 225.394531 38.28125 226.082031 C 39.007812 226.773438 39.792969 227.390625 40.636719 227.929688 C 41.480469 228.472656 42.367188 228.929688 43.296875 229.300781 C 44.230469 229.671875 45.1875 229.957031 46.167969 230.144531 C 47.152344 230.335938 48.144531 230.433594 49.148438 230.4375 Z M 281.355469 230.433594 " fill-opacity="1" fill-rule="nonzero"/><path fill="#4a4a60" d="M 130.898438 230.84375 C 130.898438 232.125 130.835938 233.402344 130.710938 234.675781 C 130.585938 235.949219 130.398438 237.214844 130.148438 238.46875 C 129.898438 239.726562 129.589844 240.964844 129.21875 242.191406 C 128.847656 243.414062 128.417969 244.617188 127.925781 245.800781 C 127.4375 246.984375 126.894531 248.140625 126.289062 249.269531 C 125.6875 250.398438 125.03125 251.492188 124.320312 252.558594 C 123.609375 253.621094 122.851562 254.648438 122.039062 255.636719 C 121.230469 256.628906 120.371094 257.574219 119.46875 258.480469 C 118.5625 259.386719 117.617188 260.242188 116.628906 261.054688 C 115.640625 261.867188 114.617188 262.628906 113.554688 263.339844 C 112.492188 264.050781 111.394531 264.707031 110.269531 265.3125 C 109.140625 265.914062 107.988281 266.460938 106.804688 266.953125 C 105.625 267.441406 104.421875 267.871094 103.199219 268.246094 C 101.976562 268.617188 100.738281 268.925781 99.484375 269.175781 C 98.230469 269.425781 96.96875 269.613281 95.695312 269.738281 C 94.421875 269.863281 93.148438 269.925781 91.871094 269.925781 C 90.59375 269.925781 89.316406 269.863281 88.046875 269.738281 C 86.773438 269.613281 85.511719 269.425781 84.257812 269.175781 C 83.003906 268.925781 81.765625 268.617188 80.542969 268.246094 C 79.316406 267.871094 78.117188 267.441406 76.933594 266.953125 C 75.753906 266.460938 74.601562 265.914062 73.472656 265.3125 C 72.34375 264.707031 71.25 264.050781 70.1875 263.339844 C 69.125 262.628906 68.097656 261.867188 67.109375 261.054688 C 66.125 260.242188 65.175781 259.386719 64.273438 258.480469 C 63.371094 257.574219 62.511719 256.628906 61.703125 255.636719 C 60.890625 254.648438 60.128906 253.621094 59.417969 252.558594 C 58.710938 251.492188 58.054688 250.398438 57.449219 249.269531 C 56.847656 248.140625 56.300781 246.984375 55.8125 245.800781 C 55.324219 244.617188 54.894531 243.414062 54.523438 242.191406 C 54.152344 240.964844 53.839844 239.726562 53.59375 238.46875 C 53.34375 237.214844 53.15625 235.949219 53.03125 234.675781 C 52.90625 233.402344 52.84375 232.125 52.84375 230.84375 C 52.84375 229.566406 52.90625 228.289062 53.03125 227.015625 C 53.15625 225.738281 53.34375 224.476562 53.59375 223.21875 C 53.839844 221.964844 54.152344 220.726562 54.523438 219.5 C 54.894531 218.273438 55.324219 217.070312 55.8125 215.886719 C 56.300781 214.707031 56.847656 213.550781 57.449219 212.421875 C 58.054688 211.292969 58.710938 210.195312 59.417969 209.132812 C 60.128906 208.066406 60.890625 207.039062 61.703125 206.050781 C 62.511719 205.0625 63.371094 204.113281 64.273438 203.210938 C 65.175781 202.304688 66.125 201.445312 67.109375 200.632812 C 68.097656 199.820312 69.125 199.058594 70.1875 198.347656 C 71.25 197.636719 72.34375 196.980469 73.472656 196.378906 C 74.601562 195.773438 75.753906 195.226562 76.933594 194.738281 C 78.117188 194.246094 79.316406 193.816406 80.542969 193.445312 C 81.765625 193.074219 83.003906 192.761719 84.257812 192.511719 C 85.511719 192.265625 86.773438 192.074219 88.046875 191.949219 C 89.316406 191.824219 90.59375 191.761719 91.871094 191.761719 C 93.148438 191.761719 94.421875 191.824219 95.695312 191.949219 C 96.96875 192.074219 98.230469 192.265625 99.484375 192.511719 C 100.738281 192.761719 101.976562 193.074219 103.199219 193.445312 C 104.421875 193.816406 105.625 194.246094 106.804688 194.738281 C 107.988281 195.226562 109.140625 195.773438 110.269531 196.378906 C 111.394531 196.980469 112.492188 197.636719 113.554688 198.347656 C 114.617188 199.058594 115.640625 199.820312 116.628906 200.632812 C 117.617188 201.445312 118.5625 202.304688 119.46875 203.210938 C 120.371094 204.113281 121.230469 205.0625 122.039062 206.050781 C 122.851562 207.039062 123.609375 208.066406 124.320312 209.132812 C 125.03125 210.195312 125.6875 211.292969 126.289062 212.421875 C 126.894531 213.550781 127.4375 214.707031 127.925781 215.886719 C 128.417969 217.070312 128.847656 218.273438 129.21875 219.5 C 129.589844 220.726562 129.898438 221.964844 130.148438 223.21875 C 130.398438 224.476562 130.585938 225.738281 130.710938 227.015625 C 130.835938 228.289062 130.898438 229.566406 130.898438 230.84375 Z M 130.898438 230.84375 " fill-opacity="1" fill-rule="nonzero"/><path fill="#ffffff" d="M 110.003906 230.84375 C 110.003906 231.441406 109.972656 232.03125 109.914062 232.625 C 109.859375 233.214844 109.769531 233.804688 109.65625 234.386719 C 109.539062 234.96875 109.394531 235.546875 109.222656 236.117188 C 109.050781 236.683594 108.851562 237.246094 108.621094 237.792969 C 108.394531 238.34375 108.140625 238.878906 107.863281 239.40625 C 107.582031 239.929688 107.277344 240.4375 106.949219 240.933594 C 106.617188 241.425781 106.265625 241.90625 105.886719 242.363281 C 105.511719 242.824219 105.113281 243.265625 104.691406 243.683594 C 104.273438 244.105469 103.832031 244.503906 103.375 244.882812 C 102.914062 245.257812 102.4375 245.613281 101.945312 245.941406 C 101.449219 246.273438 100.941406 246.578125 100.417969 246.859375 C 99.894531 247.140625 99.359375 247.394531 98.808594 247.621094 C 98.261719 247.847656 97.703125 248.046875 97.132812 248.222656 C 96.566406 248.394531 95.992188 248.539062 95.40625 248.652344 C 94.824219 248.769531 94.238281 248.855469 93.648438 248.914062 C 93.058594 248.972656 92.464844 249.003906 91.871094 249.003906 C 91.277344 249.003906 90.683594 248.972656 90.09375 248.914062 C 89.503906 248.855469 88.914062 248.769531 88.332031 248.652344 C 87.75 248.539062 87.175781 248.394531 86.605469 248.222656 C 86.039062 248.046875 85.480469 247.847656 84.929688 247.621094 C 84.382812 247.394531 83.847656 247.140625 83.324219 246.859375 C 82.800781 246.578125 82.289062 246.273438 81.796875 245.941406 C 81.300781 245.613281 80.824219 245.257812 80.367188 244.882812 C 79.90625 244.503906 79.46875 244.105469 79.046875 243.683594 C 78.628906 243.265625 78.230469 242.824219 77.855469 242.363281 C 77.476562 241.90625 77.125 241.425781 76.792969 240.933594 C 76.464844 240.4375 76.160156 239.929688 75.878906 239.40625 C 75.597656 238.878906 75.34375 238.34375 75.117188 237.792969 C 74.890625 237.242188 74.691406 236.683594 74.519531 236.117188 C 74.347656 235.546875 74.203125 234.96875 74.085938 234.386719 C 73.96875 233.804688 73.882812 233.214844 73.824219 232.625 C 73.765625 232.03125 73.738281 231.441406 73.738281 230.84375 C 73.738281 230.25 73.765625 229.65625 73.824219 229.066406 C 73.882812 228.472656 73.96875 227.886719 74.085938 227.300781 C 74.203125 226.71875 74.347656 226.144531 74.519531 225.574219 C 74.691406 225.003906 74.890625 224.445312 75.117188 223.894531 C 75.34375 223.347656 75.597656 222.808594 75.878906 222.285156 C 76.160156 221.761719 76.464844 221.25 76.792969 220.757812 C 77.125 220.261719 77.476562 219.785156 77.855469 219.324219 C 78.230469 218.867188 78.628906 218.425781 79.046875 218.003906 C 79.46875 217.585938 79.90625 217.1875 80.367188 216.808594 C 80.824219 216.429688 81.300781 216.078125 81.796875 215.746094 C 82.289062 215.417969 82.800781 215.109375 83.324219 214.832031 C 83.847656 214.550781 84.382812 214.296875 84.929688 214.070312 C 85.480469 213.839844 86.039062 213.640625 86.605469 213.46875 C 87.175781 213.296875 87.75 213.152344 88.332031 213.035156 C 88.914062 212.917969 89.503906 212.832031 90.09375 212.773438 C 90.683594 212.714844 91.277344 212.6875 91.871094 212.6875 C 92.464844 212.6875 93.058594 212.714844 93.648438 212.773438 C 94.238281 212.832031 94.824219 212.917969 95.40625 213.035156 C 95.992188 213.152344 96.566406 213.296875 97.132812 213.46875 C 97.703125 213.640625 98.261719 213.839844 98.808594 214.070312 C 99.359375 214.296875 99.894531 214.550781 100.417969 214.832031 C 100.941406 215.109375 101.449219 215.417969 101.945312 215.746094 C 102.4375 216.078125 102.914062 216.429688 103.375 216.808594 C 103.832031 217.1875 104.273438 217.585938 104.691406 218.003906 C 105.113281 218.425781 105.511719 218.867188 105.886719 219.324219 C 106.265625 219.785156 106.617188 220.261719 106.949219 220.757812 C 107.277344 221.25 107.582031 221.761719 107.863281 222.285156 C 108.140625 222.808594 108.394531 223.347656 108.621094 223.894531 C 108.851562 224.445312 109.050781 225.003906 109.222656 225.574219 C 109.394531 226.144531 109.539062 226.71875 109.65625 227.300781 C 109.769531 227.886719 109.859375 228.472656 109.914062 229.066406 C 109.972656 229.65625 110.003906 230.25 110.003906 230.84375 Z M 110.003906 230.84375 " fill-opacity="1" fill-rule="nonzero"/><path fill="#4a4a60" d="M 275.765625 230.84375 C 275.765625 232.125 275.703125 233.402344 275.578125 234.675781 C 275.453125 235.949219 275.265625 237.214844 275.015625 238.46875 C 274.765625 239.726562 274.457031 240.964844 274.085938 242.191406 C 273.714844 243.414062 273.285156 244.617188 272.792969 245.800781 C 272.304688 246.984375 271.757812 248.140625 271.15625 249.269531 C 270.554688 250.398438 269.898438 251.492188 269.1875 252.558594 C 268.476562 253.621094 267.71875 254.648438 266.90625 255.636719 C 266.09375 256.628906 265.238281 257.574219 264.335938 258.480469 C 263.429688 259.386719 262.484375 260.242188 261.496094 261.054688 C 260.507812 261.867188 259.484375 262.628906 258.421875 263.339844 C 257.355469 264.050781 256.261719 264.707031 255.136719 265.3125 C 254.007812 265.914062 252.855469 266.460938 251.671875 266.953125 C 250.492188 267.441406 249.289062 267.871094 248.066406 268.246094 C 246.84375 268.617188 245.605469 268.925781 244.351562 269.175781 C 243.097656 269.425781 241.835938 269.613281 240.5625 269.738281 C 239.289062 269.863281 238.015625 269.925781 236.738281 269.925781 C 235.460938 269.925781 234.183594 269.863281 232.910156 269.738281 C 231.640625 269.613281 230.378906 269.425781 229.125 269.175781 C 227.871094 268.925781 226.632812 268.617188 225.40625 268.246094 C 224.183594 267.871094 222.984375 267.441406 221.800781 266.953125 C 220.621094 266.460938 219.46875 265.914062 218.339844 265.3125 C 217.210938 264.707031 216.117188 264.050781 215.054688 263.339844 C 213.992188 262.628906 212.964844 261.867188 211.976562 261.054688 C 210.988281 260.242188 210.042969 259.386719 209.140625 258.480469 C 208.238281 257.574219 207.378906 256.628906 206.566406 255.636719 C 205.757812 254.648438 204.996094 253.621094 204.285156 252.558594 C 203.578125 251.492188 202.921875 250.398438 202.316406 249.269531 C 201.714844 248.140625 201.167969 246.984375 200.679688 245.800781 C 200.191406 244.617188 199.761719 243.414062 199.390625 242.191406 C 199.019531 240.964844 198.707031 239.726562 198.460938 238.46875 C 198.210938 237.214844 198.023438 235.949219 197.898438 234.675781 C 197.773438 233.402344 197.710938 232.125 197.710938 230.84375 C 197.710938 229.566406 197.773438 228.289062 197.898438 227.015625 C 198.023438 225.738281 198.210938 224.476562 198.460938 223.21875 C 198.707031 221.964844 199.019531 220.726562 199.390625 219.5 C 199.761719 218.273438 200.191406 217.070312 200.679688 215.886719 C 201.167969 214.707031 201.714844 213.550781 202.316406 212.421875 C 202.921875 211.292969 203.578125 210.195312 204.285156 209.132812 C 204.996094 208.066406 205.757812 207.039062 206.566406 206.050781 C 207.378906 205.0625 208.238281 204.113281 209.140625 203.210938 C 210.042969 202.304688 210.988281 201.445312 211.976562 200.632812 C 212.964844 199.820312 213.992188 199.058594 215.054688 198.347656 C 216.117188 197.636719 217.210938 196.980469 218.339844 196.378906 C 219.46875 195.773438 220.621094 195.226562 221.800781 194.738281 C 222.984375 194.246094 224.183594 193.816406 225.40625 193.445312 C 226.632812 193.074219 227.871094 192.761719 229.125 192.511719 C 230.378906 192.265625 231.640625 192.074219 232.910156 191.949219 C 234.183594 191.824219 235.460938 191.761719 236.738281 191.761719 C 238.015625 191.761719 239.289062 191.824219 240.5625 191.949219 C 241.835938 192.074219 243.097656 192.265625 244.351562 192.511719 C 245.605469 192.761719 246.84375 193.074219 248.066406 193.445312 C 249.289062 193.816406 250.492188 194.246094 251.671875 194.738281 C 252.855469 195.226562 254.007812 195.773438 255.136719 196.378906 C 256.261719 196.980469 257.355469 197.636719 258.421875 198.347656 C 259.484375 199.058594 260.507812 199.820312 261.496094 200.632812 C 262.484375 201.445312 263.429688 202.304688 264.335938 203.210938 C 265.238281 204.113281 266.09375 205.0625 266.90625 206.050781 C 267.71875 207.039062 268.476562 208.066406 269.1875 209.132812 C 269.898438 210.195312 270.554688 211.292969 271.15625 212.421875 C 271.757812 213.550781 272.304688 214.707031 272.792969 215.886719 C 273.285156 217.070312 273.714844 218.273438 274.085938 219.5 C 274.457031 220.726562 274.765625 221.964844 275.015625 223.21875 C 275.265625 224.476562 275.453125 225.738281 275.578125 227.015625 C 275.703125 228.289062 275.765625 229.566406 275.765625 230.84375 Z M 275.765625 230.84375 " fill-opacity="1" fill-rule="nonzero"/><path fill="#ffffff" d="M 254.871094 230.84375 C 254.871094 231.441406 254.839844 232.03125 254.78125 232.625 C 254.726562 233.214844 254.636719 233.804688 254.523438 234.386719 C 254.40625 234.96875 254.261719 235.546875 254.089844 236.117188 C 253.917969 236.683594 253.71875 237.246094 253.488281 237.792969 C 253.261719 238.34375 253.007812 238.878906 252.730469 239.40625 C 252.449219 239.929688 252.144531 240.4375 251.8125 240.933594 C 251.484375 241.425781 251.132812 241.90625 250.753906 242.363281 C 250.378906 242.824219 249.980469 243.265625 249.558594 243.683594 C 249.140625 244.105469 248.699219 244.503906 248.242188 244.882812 C 247.78125 245.257812 247.304688 245.613281 246.8125 245.941406 C 246.316406 246.273438 245.808594 246.578125 245.285156 246.859375 C 244.761719 247.140625 244.226562 247.394531 243.675781 247.621094 C 243.128906 247.847656 242.570312 248.046875 242 248.222656 C 241.433594 248.394531 240.855469 248.539062 240.273438 248.652344 C 239.691406 248.769531 239.105469 248.855469 238.515625 248.914062 C 237.921875 248.972656 237.332031 249.003906 236.738281 249.003906 C 236.144531 249.003906 235.550781 248.972656 234.960938 248.914062 C 234.367188 248.855469 233.78125 248.769531 233.199219 248.652344 C 232.617188 248.539062 232.042969 248.394531 231.472656 248.222656 C 230.90625 248.046875 230.347656 247.847656 229.796875 247.621094 C 229.25 247.394531 228.714844 247.140625 228.191406 246.859375 C 227.664062 246.578125 227.15625 246.273438 226.664062 245.941406 C 226.167969 245.613281 225.691406 245.257812 225.234375 244.882812 C 224.773438 244.503906 224.335938 244.105469 223.914062 243.683594 C 223.496094 243.265625 223.097656 242.824219 222.71875 242.363281 C 222.34375 241.90625 221.992188 241.425781 221.660156 240.933594 C 221.332031 240.4375 221.027344 239.929688 220.746094 239.40625 C 220.464844 238.878906 220.210938 238.34375 219.984375 237.792969 C 219.757812 237.242188 219.558594 236.683594 219.386719 236.117188 C 219.214844 235.546875 219.070312 234.96875 218.953125 234.386719 C 218.835938 233.804688 218.75 233.214844 218.691406 232.625 C 218.632812 232.03125 218.605469 231.441406 218.605469 230.84375 C 218.605469 230.25 218.632812 229.65625 218.691406 229.066406 C 218.75 228.472656 218.835938 227.886719 218.953125 227.300781 C 219.070312 226.71875 219.214844 226.144531 219.386719 225.574219 C 219.558594 225.003906 219.757812 224.445312 219.984375 223.894531 C 220.210938 223.347656 220.464844 222.808594 220.746094 222.285156 C 221.027344 221.761719 221.332031 221.25 221.660156 220.757812 C 221.992188 220.261719 222.34375 219.785156 222.71875 219.324219 C 223.097656 218.867188 223.496094 218.425781 223.914062 218.003906 C 224.335938 217.585938 224.773438 217.1875 225.234375 216.808594 C 225.691406 216.429688 226.167969 216.078125 226.664062 215.746094 C 227.15625 215.417969 227.664062 215.109375 228.191406 214.832031 C 228.714844 214.550781 229.25 214.296875 229.796875 214.070312 C 230.347656 213.839844 230.90625 213.640625 231.472656 213.46875 C 232.042969 213.296875 232.617188 213.152344 233.199219 213.035156 C 233.78125 212.917969 234.367188 212.832031 234.960938 212.773438 C 235.550781 212.714844 236.144531 212.6875 236.738281 212.6875 C 237.332031 212.6875 237.921875 212.714844 238.515625 212.773438 C 239.105469 212.832031 239.691406 212.917969 240.273438 213.035156 C 240.855469 213.152344 241.433594 213.296875 242 213.46875 C 242.570312 213.640625 243.128906 213.839844 243.675781 214.070312 C 244.226562 214.296875 244.761719 214.550781 245.285156 214.832031 C 245.808594 215.109375 246.316406 215.417969 246.8125 215.746094 C 247.304688 216.078125 247.78125 216.429688 248.242188 216.808594 C 248.699219 217.1875 249.140625 217.585938 249.558594 218.003906 C 249.980469 218.425781 250.378906 218.867188 250.753906 219.324219 C 251.132812 219.785156 251.484375 220.261719 251.8125 220.757812 C 252.144531 221.25 252.449219 221.761719 252.730469 222.285156 C 253.007812 222.808594 253.261719 223.347656 253.488281 223.894531 C 253.71875 224.445312 253.917969 225.003906 254.089844 225.574219 C 254.261719 226.144531 254.40625 226.71875 254.523438 227.300781 C 254.636719 227.886719 254.726562 228.472656 254.78125 229.066406 C 254.839844 229.65625 254.871094 230.25 254.871094 230.84375 Z M 254.871094 230.84375 " fill-opacity="1" fill-rule="nonzero"/></svg>